<mxfile host="app.diagrams.net" agent="Mozilla/5.0 (Windows NT 10.0; Win64; x64) AppleWebKit/537.36 (KHTML, like Gecko) Chrome/138.0.0.0 Safari/537.36" version="28.0.7" pages="2">
  <diagram name="หน้า-1" id="xfbUansAMxG4-TKM1BIX">
    <mxGraphModel dx="1783" dy="971" grid="1" gridSize="10" guides="1" tooltips="1" connect="1" arrows="1" fold="1" page="1" pageScale="1" pageWidth="827" pageHeight="1169" math="0" shadow="0">
      <root>
        <mxCell id="0" />
        <mxCell id="1" parent="0" />
        <mxCell id="gilAdppkaqPvzmJ8jZnc-1" value="Vertical Container" style="swimlane;whiteSpace=wrap;html=1;" parent="1" vertex="1">
          <mxGeometry x="60" y="140" width="1100" height="1250" as="geometry" />
        </mxCell>
        <mxCell id="gilAdppkaqPvzmJ8jZnc-9" style="edgeStyle=orthogonalEdgeStyle;rounded=0;orthogonalLoop=1;jettySize=auto;html=1;entryX=0.5;entryY=0;entryDx=0;entryDy=0;" parent="gilAdppkaqPvzmJ8jZnc-1" source="gilAdppkaqPvzmJ8jZnc-2" target="gilAdppkaqPvzmJ8jZnc-6" edge="1">
          <mxGeometry relative="1" as="geometry" />
        </mxCell>
        <mxCell id="gilAdppkaqPvzmJ8jZnc-2" value="Start" style="ellipse;whiteSpace=wrap;html=1;" parent="gilAdppkaqPvzmJ8jZnc-1" vertex="1">
          <mxGeometry x="327.5" y="60" width="95" height="30" as="geometry" />
        </mxCell>
        <mxCell id="M0ioImdnYNHKYxNt6fEo-2" style="edgeStyle=orthogonalEdgeStyle;rounded=0;orthogonalLoop=1;jettySize=auto;html=1;entryX=0.5;entryY=0;entryDx=0;entryDy=0;" parent="gilAdppkaqPvzmJ8jZnc-1" source="gilAdppkaqPvzmJ8jZnc-6" target="M0ioImdnYNHKYxNt6fEo-1" edge="1">
          <mxGeometry relative="1" as="geometry" />
        </mxCell>
        <mxCell id="gilAdppkaqPvzmJ8jZnc-6" value="score = 100" style="rounded=0;whiteSpace=wrap;html=1;" parent="gilAdppkaqPvzmJ8jZnc-1" vertex="1">
          <mxGeometry x="315" y="120" width="120" height="60" as="geometry" />
        </mxCell>
        <mxCell id="gilAdppkaqPvzmJ8jZnc-11" style="edgeStyle=orthogonalEdgeStyle;rounded=0;orthogonalLoop=1;jettySize=auto;html=1;entryX=0.5;entryY=0;entryDx=0;entryDy=0;" parent="gilAdppkaqPvzmJ8jZnc-1" source="gilAdppkaqPvzmJ8jZnc-7" target="gilAdppkaqPvzmJ8jZnc-8" edge="1">
          <mxGeometry relative="1" as="geometry" />
        </mxCell>
        <mxCell id="CXvJN1Vs7xgy2bZLKtdx-1" style="edgeStyle=orthogonalEdgeStyle;rounded=0;orthogonalLoop=1;jettySize=auto;html=1;entryX=0.5;entryY=0;entryDx=0;entryDy=0;" parent="gilAdppkaqPvzmJ8jZnc-1" source="gilAdppkaqPvzmJ8jZnc-7" target="gilAdppkaqPvzmJ8jZnc-318" edge="1">
          <mxGeometry relative="1" as="geometry" />
        </mxCell>
        <mxCell id="gilAdppkaqPvzmJ8jZnc-7" value="guess == target?" style="rhombus;whiteSpace=wrap;html=1;" parent="gilAdppkaqPvzmJ8jZnc-1" vertex="1">
          <mxGeometry x="308.75" y="380" width="132.5" height="70" as="geometry" />
        </mxCell>
        <mxCell id="gilAdppkaqPvzmJ8jZnc-8" value="congratulations" style="rounded=0;whiteSpace=wrap;html=1;" parent="gilAdppkaqPvzmJ8jZnc-1" vertex="1">
          <mxGeometry x="150" y="440" width="120" height="60" as="geometry" />
        </mxCell>
        <mxCell id="CXvJN1Vs7xgy2bZLKtdx-3" style="edgeStyle=orthogonalEdgeStyle;rounded=0;orthogonalLoop=1;jettySize=auto;html=1;entryX=0.5;entryY=0;entryDx=0;entryDy=0;" parent="gilAdppkaqPvzmJ8jZnc-1" source="gilAdppkaqPvzmJ8jZnc-318" target="CXvJN1Vs7xgy2bZLKtdx-2" edge="1">
          <mxGeometry relative="1" as="geometry" />
        </mxCell>
        <mxCell id="gilAdppkaqPvzmJ8jZnc-318" value="&#xa;Subtract 10 points&#xa;&#xa;" style="rounded=0;whiteSpace=wrap;html=1;" parent="gilAdppkaqPvzmJ8jZnc-1" vertex="1">
          <mxGeometry x="500" y="440" width="120" height="60" as="geometry" />
        </mxCell>
        <mxCell id="gilAdppkaqPvzmJ8jZnc-320" value="y" style="text;html=1;align=center;verticalAlign=middle;whiteSpace=wrap;rounded=0;" parent="gilAdppkaqPvzmJ8jZnc-1" vertex="1">
          <mxGeometry x="210" y="370" width="60" height="30" as="geometry" />
        </mxCell>
        <mxCell id="gilAdppkaqPvzmJ8jZnc-321" value="n" style="text;html=1;align=center;verticalAlign=middle;whiteSpace=wrap;rounded=0;" parent="gilAdppkaqPvzmJ8jZnc-1" vertex="1">
          <mxGeometry x="500" y="380" width="60" height="30" as="geometry" />
        </mxCell>
        <mxCell id="M0ioImdnYNHKYxNt6fEo-4" style="edgeStyle=orthogonalEdgeStyle;rounded=0;orthogonalLoop=1;jettySize=auto;html=1;entryX=0.5;entryY=0;entryDx=0;entryDy=0;" parent="gilAdppkaqPvzmJ8jZnc-1" source="gilAdppkaqPvzmJ8jZnc-325" target="gilAdppkaqPvzmJ8jZnc-7" edge="1">
          <mxGeometry relative="1" as="geometry" />
        </mxCell>
        <mxCell id="gilAdppkaqPvzmJ8jZnc-325" value="" style="ellipse;whiteSpace=wrap;html=1;aspect=fixed;" parent="gilAdppkaqPvzmJ8jZnc-1" vertex="1">
          <mxGeometry x="360" y="330" width="30" height="30" as="geometry" />
        </mxCell>
        <mxCell id="s5HOkA4Jx4WjspkYPT5E-2" style="edgeStyle=orthogonalEdgeStyle;rounded=0;orthogonalLoop=1;jettySize=auto;html=1;entryX=0.5;entryY=0;entryDx=0;entryDy=0;" parent="gilAdppkaqPvzmJ8jZnc-1" source="Cu_225SV3a4bqdn6VzHu-1" target="p4hbO654ZCI7iWCjL49B-7" edge="1">
          <mxGeometry relative="1" as="geometry">
            <mxPoint x="205" y="640" as="targetPoint" />
          </mxGeometry>
        </mxCell>
        <mxCell id="Cu_225SV3a4bqdn6VzHu-1" value="Current score =" style="shape=parallelogram;perimeter=parallelogramPerimeter;whiteSpace=wrap;html=1;fixedSize=1;" parent="gilAdppkaqPvzmJ8jZnc-1" vertex="1">
          <mxGeometry x="145" y="545" width="120" height="60" as="geometry" />
        </mxCell>
        <mxCell id="UkA8acwgCkrzbAxERn-K-2" style="edgeStyle=orthogonalEdgeStyle;rounded=0;orthogonalLoop=1;jettySize=auto;html=1;entryX=0.5;entryY=0;entryDx=0;entryDy=0;" parent="gilAdppkaqPvzmJ8jZnc-1" source="p4hbO654ZCI7iWCjL49B-7" target="UkA8acwgCkrzbAxERn-K-1" edge="1">
          <mxGeometry relative="1" as="geometry" />
        </mxCell>
        <mxCell id="p4hbO654ZCI7iWCjL49B-7" value="&lt;div style=&quot;&quot;&gt;&lt;span style=&quot;background-color: transparent; color: light-dark(rgb(0, 0, 0), rgb(255, 255, 255));&quot;&gt;1 = newgame&lt;/span&gt;&lt;/div&gt;&lt;div style=&quot;&quot;&gt;-1= End&lt;/div&gt;" style="rhombus;whiteSpace=wrap;html=1;align=center;" parent="gilAdppkaqPvzmJ8jZnc-1" vertex="1">
          <mxGeometry x="150" y="650" width="110" height="70" as="geometry" />
        </mxCell>
        <mxCell id="s5HOkA4Jx4WjspkYPT5E-10" value="End" style="ellipse;whiteSpace=wrap;html=1;" parent="gilAdppkaqPvzmJ8jZnc-1" vertex="1">
          <mxGeometry x="332.5" y="890" width="105" height="40" as="geometry" />
        </mxCell>
        <mxCell id="s5HOkA4Jx4WjspkYPT5E-11" style="edgeStyle=orthogonalEdgeStyle;rounded=0;orthogonalLoop=1;jettySize=auto;html=1;entryX=0.55;entryY=0.05;entryDx=0;entryDy=0;entryPerimeter=0;" parent="gilAdppkaqPvzmJ8jZnc-1" source="gilAdppkaqPvzmJ8jZnc-8" target="Cu_225SV3a4bqdn6VzHu-1" edge="1">
          <mxGeometry relative="1" as="geometry" />
        </mxCell>
        <mxCell id="M0ioImdnYNHKYxNt6fEo-6" style="edgeStyle=orthogonalEdgeStyle;rounded=0;orthogonalLoop=1;jettySize=auto;html=1;entryX=0.5;entryY=0;entryDx=0;entryDy=0;" parent="gilAdppkaqPvzmJ8jZnc-1" source="CXvJN1Vs7xgy2bZLKtdx-2" target="M0ioImdnYNHKYxNt6fEo-5" edge="1">
          <mxGeometry relative="1" as="geometry" />
        </mxCell>
        <mxCell id="CXvJN1Vs7xgy2bZLKtdx-2" value="score = score - 10" style="shape=parallelogram;perimeter=parallelogramPerimeter;whiteSpace=wrap;html=1;fixedSize=1;" parent="gilAdppkaqPvzmJ8jZnc-1" vertex="1">
          <mxGeometry x="500" y="530" width="120" height="60" as="geometry" />
        </mxCell>
        <mxCell id="M0ioImdnYNHKYxNt6fEo-3" style="edgeStyle=orthogonalEdgeStyle;rounded=0;orthogonalLoop=1;jettySize=auto;html=1;entryX=0.5;entryY=0;entryDx=0;entryDy=0;" parent="gilAdppkaqPvzmJ8jZnc-1" source="M0ioImdnYNHKYxNt6fEo-1" target="gilAdppkaqPvzmJ8jZnc-325" edge="1">
          <mxGeometry relative="1" as="geometry" />
        </mxCell>
        <mxCell id="M0ioImdnYNHKYxNt6fEo-1" value="Generate random number (1 to 100)" style="rounded=0;whiteSpace=wrap;html=1;" parent="gilAdppkaqPvzmJ8jZnc-1" vertex="1">
          <mxGeometry x="315" y="210" width="120" height="60" as="geometry" />
        </mxCell>
        <mxCell id="M0ioImdnYNHKYxNt6fEo-5" value="Give hint (Higher or Lower)" style="rounded=0;whiteSpace=wrap;html=1;" parent="gilAdppkaqPvzmJ8jZnc-1" vertex="1">
          <mxGeometry x="500" y="620" width="120" height="60" as="geometry" />
        </mxCell>
        <mxCell id="Wg4Us2g_FG29zPsGM153-1" style="edgeStyle=orthogonalEdgeStyle;rounded=0;orthogonalLoop=1;jettySize=auto;html=1;entryX=1;entryY=0.333;entryDx=0;entryDy=0;entryPerimeter=0;" parent="gilAdppkaqPvzmJ8jZnc-1" source="M0ioImdnYNHKYxNt6fEo-5" target="gilAdppkaqPvzmJ8jZnc-325" edge="1">
          <mxGeometry relative="1" as="geometry">
            <Array as="points">
              <mxPoint x="710" y="650" />
              <mxPoint x="710" y="340" />
            </Array>
          </mxGeometry>
        </mxCell>
        <mxCell id="UkA8acwgCkrzbAxERn-K-3" style="edgeStyle=orthogonalEdgeStyle;rounded=0;orthogonalLoop=1;jettySize=auto;html=1;" parent="gilAdppkaqPvzmJ8jZnc-1" source="UkA8acwgCkrzbAxERn-K-1" target="s5HOkA4Jx4WjspkYPT5E-10" edge="1">
          <mxGeometry relative="1" as="geometry">
            <mxPoint x="385" y="800.0000000000002" as="targetPoint" />
            <Array as="points">
              <mxPoint x="385" y="765" />
            </Array>
          </mxGeometry>
        </mxCell>
        <mxCell id="UkA8acwgCkrzbAxERn-K-4" style="edgeStyle=orthogonalEdgeStyle;rounded=0;orthogonalLoop=1;jettySize=auto;html=1;entryX=0;entryY=0.5;entryDx=0;entryDy=0;" parent="gilAdppkaqPvzmJ8jZnc-1" source="UkA8acwgCkrzbAxERn-K-1" target="gilAdppkaqPvzmJ8jZnc-325" edge="1">
          <mxGeometry relative="1" as="geometry">
            <Array as="points">
              <mxPoint x="60" y="765" />
              <mxPoint x="60" y="345" />
            </Array>
          </mxGeometry>
        </mxCell>
        <mxCell id="UkA8acwgCkrzbAxERn-K-1" value="" style="ellipse;whiteSpace=wrap;html=1;aspect=fixed;" parent="gilAdppkaqPvzmJ8jZnc-1" vertex="1">
          <mxGeometry x="190" y="750" width="30" height="30" as="geometry" />
        </mxCell>
        <mxCell id="gilAdppkaqPvzmJ8jZnc-317" value="Text" style="text;html=1;align=center;verticalAlign=middle;whiteSpace=wrap;rounded=0;" parent="1" vertex="1">
          <mxGeometry x="1980" y="1640" width="60" height="30" as="geometry" />
        </mxCell>
      </root>
    </mxGraphModel>
  </diagram>
  <diagram name="Page-1" id="NVHefkGWY_j0UXaHcMzx">
    <mxGraphModel dx="1426" dy="777" grid="1" gridSize="10" guides="1" tooltips="1" connect="1" arrows="1" fold="1" page="1" pageScale="1" pageWidth="850" pageHeight="1100" math="0" shadow="0">
      <root>
        <mxCell id="0" />
        <mxCell id="1" parent="0" />
        <mxCell id="pLaA7P1DmfjtQRvUbQx7-3" value="" style="edgeStyle=orthogonalEdgeStyle;rounded=0;orthogonalLoop=1;jettySize=auto;html=1;" parent="1" source="pLaA7P1DmfjtQRvUbQx7-1" target="pLaA7P1DmfjtQRvUbQx7-2" edge="1">
          <mxGeometry relative="1" as="geometry" />
        </mxCell>
        <mxCell id="QlkqBb3dUM9ruUX0ujAK-2" value="" style="edgeStyle=orthogonalEdgeStyle;rounded=0;orthogonalLoop=1;jettySize=auto;html=1;" parent="1" source="pLaA7P1DmfjtQRvUbQx7-2" target="QlkqBb3dUM9ruUX0ujAK-1" edge="1">
          <mxGeometry relative="1" as="geometry" />
        </mxCell>
        <mxCell id="pLaA7P1DmfjtQRvUbQx7-2" value="N = 0" style="whiteSpace=wrap;html=1;" parent="1" vertex="1">
          <mxGeometry x="384" y="496" width="120" height="49" as="geometry" />
        </mxCell>
        <mxCell id="pLaA7P1DmfjtQRvUbQx7-7" value="" style="edgeStyle=orthogonalEdgeStyle;rounded=0;orthogonalLoop=1;jettySize=auto;html=1;exitX=0;exitY=0.5;exitDx=0;exitDy=0;" parent="1" source="pLaA7P1DmfjtQRvUbQx7-4" target="pLaA7P1DmfjtQRvUbQx7-6" edge="1">
          <mxGeometry relative="1" as="geometry">
            <mxPoint x="349.9999999999998" y="771.25" as="sourcePoint" />
          </mxGeometry>
        </mxCell>
        <mxCell id="pLaA7P1DmfjtQRvUbQx7-27" value="" style="edgeStyle=orthogonalEdgeStyle;rounded=0;orthogonalLoop=1;jettySize=auto;html=1;exitX=1;exitY=0.5;exitDx=0;exitDy=0;" parent="1" source="pLaA7P1DmfjtQRvUbQx7-4" target="pLaA7P1DmfjtQRvUbQx7-26" edge="1">
          <mxGeometry relative="1" as="geometry">
            <mxPoint x="501.80999999999995" y="771.25" as="sourcePoint" />
          </mxGeometry>
        </mxCell>
        <mxCell id="pLaA7P1DmfjtQRvUbQx7-4" value="N % 2 == 0" style="rhombus;whiteSpace=wrap;html=1;" parent="1" vertex="1">
          <mxGeometry x="368" y="743" width="151.81" height="79.5" as="geometry" />
        </mxCell>
        <mxCell id="pLaA7P1DmfjtQRvUbQx7-9" value="" style="edgeStyle=orthogonalEdgeStyle;rounded=0;orthogonalLoop=1;jettySize=auto;html=1;" parent="1" source="pLaA7P1DmfjtQRvUbQx7-6" target="pLaA7P1DmfjtQRvUbQx7-8" edge="1">
          <mxGeometry relative="1" as="geometry" />
        </mxCell>
        <mxCell id="pLaA7P1DmfjtQRvUbQx7-6" value="i = N" style="whiteSpace=wrap;html=1;" parent="1" vertex="1">
          <mxGeometry x="234" y="844.75" width="120" height="56.25" as="geometry" />
        </mxCell>
        <mxCell id="pLaA7P1DmfjtQRvUbQx7-11" value="" style="edgeStyle=orthogonalEdgeStyle;rounded=0;orthogonalLoop=1;jettySize=auto;html=1;" parent="1" source="pLaA7P1DmfjtQRvUbQx7-8" target="pLaA7P1DmfjtQRvUbQx7-10" edge="1">
          <mxGeometry relative="1" as="geometry" />
        </mxCell>
        <mxCell id="pLaA7P1DmfjtQRvUbQx7-8" value="" style="ellipse;whiteSpace=wrap;html=1;" parent="1" vertex="1">
          <mxGeometry x="279" y="934.13" width="31.88" height="31.88" as="geometry" />
        </mxCell>
        <mxCell id="pLaA7P1DmfjtQRvUbQx7-25" value="" style="edgeStyle=orthogonalEdgeStyle;rounded=0;orthogonalLoop=1;jettySize=auto;html=1;entryX=0;entryY=0.5;entryDx=0;entryDy=0;" parent="1" source="pLaA7P1DmfjtQRvUbQx7-10" target="pLaA7P1DmfjtQRvUbQx7-18" edge="1">
          <mxGeometry relative="1" as="geometry">
            <mxPoint x="601.03" y="1038.95" as="targetPoint" />
            <Array as="points">
              <mxPoint x="400" y="1039" />
              <mxPoint x="400" y="1356" />
            </Array>
          </mxGeometry>
        </mxCell>
        <mxCell id="pLaA7P1DmfjtQRvUbQx7-45" value="" style="edgeStyle=orthogonalEdgeStyle;rounded=0;orthogonalLoop=1;jettySize=auto;html=1;" parent="1" source="pLaA7P1DmfjtQRvUbQx7-10" target="pLaA7P1DmfjtQRvUbQx7-12" edge="1">
          <mxGeometry relative="1" as="geometry" />
        </mxCell>
        <mxCell id="pLaA7P1DmfjtQRvUbQx7-10" value="i &amp;gt;= 0" style="rhombus;whiteSpace=wrap;html=1;" parent="1" vertex="1">
          <mxGeometry x="232.94" y="998.95" width="124.06" height="80" as="geometry" />
        </mxCell>
        <mxCell id="pLaA7P1DmfjtQRvUbQx7-15" value="" style="edgeStyle=orthogonalEdgeStyle;rounded=0;orthogonalLoop=1;jettySize=auto;html=1;" parent="1" source="pLaA7P1DmfjtQRvUbQx7-12" target="pLaA7P1DmfjtQRvUbQx7-14" edge="1">
          <mxGeometry relative="1" as="geometry" />
        </mxCell>
        <mxCell id="pLaA7P1DmfjtQRvUbQx7-12" value="แสดงผล" style="shape=parallelogram;perimeter=parallelogramPerimeter;whiteSpace=wrap;html=1;fixedSize=1;" parent="1" vertex="1">
          <mxGeometry x="234.97000000000003" y="1111.95" width="120" height="49.05" as="geometry" />
        </mxCell>
        <mxCell id="pLaA7P1DmfjtQRvUbQx7-17" value="" style="edgeStyle=orthogonalEdgeStyle;rounded=0;orthogonalLoop=1;jettySize=auto;html=1;entryX=0;entryY=0.5;entryDx=0;entryDy=0;" parent="1" source="pLaA7P1DmfjtQRvUbQx7-14" target="pLaA7P1DmfjtQRvUbQx7-8" edge="1">
          <mxGeometry relative="1" as="geometry">
            <mxPoint x="103.97000000000003" y="1224.3529411764707" as="targetPoint" />
            <Array as="points">
              <mxPoint x="170" y="1224" />
              <mxPoint x="170" y="950" />
            </Array>
          </mxGeometry>
        </mxCell>
        <mxCell id="pLaA7P1DmfjtQRvUbQx7-14" value="i -= 2" style="whiteSpace=wrap;html=1;" parent="1" vertex="1">
          <mxGeometry x="234.97000000000003" y="1196.53" width="120" height="55.47" as="geometry" />
        </mxCell>
        <mxCell id="pLaA7P1DmfjtQRvUbQx7-23" value="" style="edgeStyle=orthogonalEdgeStyle;rounded=0;orthogonalLoop=1;jettySize=auto;html=1;" parent="1" source="pLaA7P1DmfjtQRvUbQx7-18" edge="1">
          <mxGeometry relative="1" as="geometry">
            <mxPoint x="451" y="1423" as="targetPoint" />
          </mxGeometry>
        </mxCell>
        <mxCell id="pLaA7P1DmfjtQRvUbQx7-18" value="" style="ellipse;whiteSpace=wrap;html=1;aspect=fixed;" parent="1" vertex="1">
          <mxGeometry x="436" y="1341" width="30" height="30" as="geometry" />
        </mxCell>
        <mxCell id="pLaA7P1DmfjtQRvUbQx7-22" value="end" style="ellipse;whiteSpace=wrap;html=1;" parent="1" vertex="1">
          <mxGeometry x="392" y="1423" width="120" height="50" as="geometry" />
        </mxCell>
        <mxCell id="pLaA7P1DmfjtQRvUbQx7-29" value="" style="edgeStyle=orthogonalEdgeStyle;rounded=0;orthogonalLoop=1;jettySize=auto;html=1;" parent="1" source="pLaA7P1DmfjtQRvUbQx7-26" target="pLaA7P1DmfjtQRvUbQx7-28" edge="1">
          <mxGeometry relative="1" as="geometry" />
        </mxCell>
        <mxCell id="pLaA7P1DmfjtQRvUbQx7-26" value="i = 1" style="whiteSpace=wrap;html=1;" parent="1" vertex="1">
          <mxGeometry x="518.0049999999999" y="840.88" width="120" height="60" as="geometry" />
        </mxCell>
        <mxCell id="pLaA7P1DmfjtQRvUbQx7-31" value="" style="edgeStyle=orthogonalEdgeStyle;rounded=0;orthogonalLoop=1;jettySize=auto;html=1;" parent="1" source="pLaA7P1DmfjtQRvUbQx7-28" target="pLaA7P1DmfjtQRvUbQx7-30" edge="1">
          <mxGeometry relative="1" as="geometry" />
        </mxCell>
        <mxCell id="pLaA7P1DmfjtQRvUbQx7-28" value="" style="ellipse;whiteSpace=wrap;html=1;" parent="1" vertex="1">
          <mxGeometry x="562" y="936.88" width="30.12" height="30.12" as="geometry" />
        </mxCell>
        <mxCell id="pLaA7P1DmfjtQRvUbQx7-33" value="" style="edgeStyle=orthogonalEdgeStyle;rounded=0;orthogonalLoop=1;jettySize=auto;html=1;" parent="1" source="pLaA7P1DmfjtQRvUbQx7-30" target="pLaA7P1DmfjtQRvUbQx7-32" edge="1">
          <mxGeometry relative="1" as="geometry" />
        </mxCell>
        <mxCell id="pLaA7P1DmfjtQRvUbQx7-30" value="i &amp;lt;= N" style="rhombus;whiteSpace=wrap;html=1;" parent="1" vertex="1">
          <mxGeometry x="515.03" y="998.95" width="124.06" height="80" as="geometry" />
        </mxCell>
        <mxCell id="pLaA7P1DmfjtQRvUbQx7-35" value="" style="edgeStyle=orthogonalEdgeStyle;rounded=0;orthogonalLoop=1;jettySize=auto;html=1;" parent="1" source="pLaA7P1DmfjtQRvUbQx7-32" target="pLaA7P1DmfjtQRvUbQx7-34" edge="1">
          <mxGeometry relative="1" as="geometry" />
        </mxCell>
        <mxCell id="pLaA7P1DmfjtQRvUbQx7-32" value="แสดงผล" style="shape=parallelogram;perimeter=parallelogramPerimeter;whiteSpace=wrap;html=1;fixedSize=1;" parent="1" vertex="1">
          <mxGeometry x="517.06" y="1111.95" width="120" height="49.05" as="geometry" />
        </mxCell>
        <mxCell id="pLaA7P1DmfjtQRvUbQx7-37" value="" style="edgeStyle=orthogonalEdgeStyle;rounded=0;orthogonalLoop=1;jettySize=auto;html=1;entryX=1;entryY=0.5;entryDx=0;entryDy=0;" parent="1" source="pLaA7P1DmfjtQRvUbQx7-34" target="pLaA7P1DmfjtQRvUbQx7-28" edge="1">
          <mxGeometry relative="1" as="geometry">
            <mxPoint x="717.0600000000002" y="1224.3529411764707" as="targetPoint" />
            <Array as="points">
              <mxPoint x="710" y="1224" />
              <mxPoint x="710" y="952" />
            </Array>
          </mxGeometry>
        </mxCell>
        <mxCell id="pLaA7P1DmfjtQRvUbQx7-34" value="i += 2" style="whiteSpace=wrap;html=1;" parent="1" vertex="1">
          <mxGeometry x="517.06" y="1196.53" width="120" height="55.47" as="geometry" />
        </mxCell>
        <mxCell id="pLaA7P1DmfjtQRvUbQx7-40" value="yes" style="text;html=1;align=center;verticalAlign=middle;whiteSpace=wrap;rounded=0;" parent="1" vertex="1">
          <mxGeometry x="288" y="749" width="60" height="30" as="geometry" />
        </mxCell>
        <mxCell id="pLaA7P1DmfjtQRvUbQx7-41" value="yes" style="text;html=1;align=center;verticalAlign=middle;whiteSpace=wrap;rounded=0;" parent="1" vertex="1">
          <mxGeometry x="242.97" y="1076" width="60" height="30" as="geometry" />
        </mxCell>
        <mxCell id="pLaA7P1DmfjtQRvUbQx7-43" value="yes" style="text;html=1;align=center;verticalAlign=middle;whiteSpace=wrap;rounded=0;" parent="1" vertex="1">
          <mxGeometry x="576.0899999999999" y="1076" width="60" height="30" as="geometry" />
        </mxCell>
        <mxCell id="pLaA7P1DmfjtQRvUbQx7-46" value="no" style="text;html=1;align=center;verticalAlign=middle;whiteSpace=wrap;rounded=0;" parent="1" vertex="1">
          <mxGeometry x="535.06" y="748" width="60" height="30" as="geometry" />
        </mxCell>
        <mxCell id="pLaA7P1DmfjtQRvUbQx7-48" value="" style="edgeStyle=orthogonalEdgeStyle;rounded=0;orthogonalLoop=1;jettySize=auto;html=1;entryX=1;entryY=0.5;entryDx=0;entryDy=0;" parent="1" source="pLaA7P1DmfjtQRvUbQx7-30" target="pLaA7P1DmfjtQRvUbQx7-18" edge="1">
          <mxGeometry relative="1" as="geometry">
            <mxPoint x="515" y="1039" as="sourcePoint" />
            <mxPoint x="435" y="1356" as="targetPoint" />
            <Array as="points" />
          </mxGeometry>
        </mxCell>
        <mxCell id="pLaA7P1DmfjtQRvUbQx7-47" value="no" style="text;html=1;align=center;verticalAlign=middle;whiteSpace=wrap;rounded=0;" parent="1" vertex="1">
          <mxGeometry x="440.80999999999995" y="1066" width="60" height="30" as="geometry" />
        </mxCell>
        <mxCell id="pLaA7P1DmfjtQRvUbQx7-49" value="no" style="text;html=1;align=center;verticalAlign=middle;whiteSpace=wrap;rounded=0;" parent="1" vertex="1">
          <mxGeometry x="357.99999999999994" y="1066" width="60" height="30" as="geometry" />
        </mxCell>
        <mxCell id="QlkqBb3dUM9ruUX0ujAK-5" value="" style="edgeStyle=orthogonalEdgeStyle;rounded=0;orthogonalLoop=1;jettySize=auto;html=1;" parent="1" source="QlkqBb3dUM9ruUX0ujAK-1" target="QlkqBb3dUM9ruUX0ujAK-4" edge="1">
          <mxGeometry relative="1" as="geometry" />
        </mxCell>
        <mxCell id="QlkqBb3dUM9ruUX0ujAK-1" value="รับค่า N" style="shape=parallelogram;perimeter=parallelogramPerimeter;whiteSpace=wrap;html=1;fixedSize=1;" parent="1" vertex="1">
          <mxGeometry x="384" y="575" width="120" height="50" as="geometry" />
        </mxCell>
        <mxCell id="QlkqBb3dUM9ruUX0ujAK-6" value="" style="edgeStyle=orthogonalEdgeStyle;rounded=0;orthogonalLoop=1;jettySize=auto;html=1;entryX=0.5;entryY=0;entryDx=0;entryDy=0;" parent="1" source="QlkqBb3dUM9ruUX0ujAK-4" target="pLaA7P1DmfjtQRvUbQx7-4" edge="1">
          <mxGeometry relative="1" as="geometry" />
        </mxCell>
        <mxCell id="QlkqBb3dUM9ruUX0ujAK-10" value="" style="edgeStyle=orthogonalEdgeStyle;rounded=0;orthogonalLoop=1;jettySize=auto;html=1;entryX=1;entryY=0.5;entryDx=0;entryDy=0;" parent="1" source="QlkqBb3dUM9ruUX0ujAK-4" target="pLaA7P1DmfjtQRvUbQx7-22" edge="1">
          <mxGeometry relative="1" as="geometry">
            <mxPoint x="611" y="682" as="targetPoint" />
            <Array as="points">
              <mxPoint x="740" y="682" />
              <mxPoint x="740" y="1448" />
            </Array>
          </mxGeometry>
        </mxCell>
        <mxCell id="QlkqBb3dUM9ruUX0ujAK-4" value="N เป็นตัวเลข?" style="rhombus;whiteSpace=wrap;html=1;" parent="1" vertex="1">
          <mxGeometry x="361.5" y="652" width="165" height="60" as="geometry" />
        </mxCell>
        <mxCell id="QlkqBb3dUM9ruUX0ujAK-7" value="yes" style="text;html=1;align=center;verticalAlign=middle;whiteSpace=wrap;rounded=0;" parent="1" vertex="1">
          <mxGeometry x="395.81" y="708" width="60" height="30" as="geometry" />
        </mxCell>
        <mxCell id="4651XKwHsViZ6ubkQijK-34" value="ทบทวนสัญลักษณ์" style="swimlane;fontFamily=Sarabun;fontSource=https%3A%2F%2Ffonts.googleapis.com%2Fcss%3Ffamily%3DSarabun;" parent="1" vertex="1">
          <mxGeometry x="121" y="50" width="640" height="290" as="geometry" />
        </mxCell>
        <mxCell id="4651XKwHsViZ6ubkQijK-35" value="&lt;font data-font-src=&quot;https://fonts.googleapis.com/css?family=Sarabun&quot; face=&quot;Sarabun&quot;&gt;เริ่มต้น&lt;/font&gt;" style="ellipse;whiteSpace=wrap;html=1;" parent="4651XKwHsViZ6ubkQijK-34" vertex="1">
          <mxGeometry x="20" y="40" width="130" height="30" as="geometry" />
        </mxCell>
        <mxCell id="4651XKwHsViZ6ubkQijK-36" value="" style="endArrow=classic;html=1;rounded=0;" parent="4651XKwHsViZ6ubkQijK-34" edge="1">
          <mxGeometry width="50" height="50" relative="1" as="geometry">
            <mxPoint x="84.5" y="70" as="sourcePoint" />
            <mxPoint x="84.5" y="120" as="targetPoint" />
          </mxGeometry>
        </mxCell>
        <mxCell id="4651XKwHsViZ6ubkQijK-37" value="&lt;font face=&quot;Sarabun&quot;&gt;สิ้นสุด&lt;/font&gt;" style="ellipse;whiteSpace=wrap;html=1;" parent="4651XKwHsViZ6ubkQijK-34" vertex="1">
          <mxGeometry x="150" y="90" width="130" height="30" as="geometry" />
        </mxCell>
        <mxCell id="4651XKwHsViZ6ubkQijK-38" value="" style="endArrow=classic;html=1;rounded=0;" parent="4651XKwHsViZ6ubkQijK-34" edge="1">
          <mxGeometry width="50" height="50" relative="1" as="geometry">
            <mxPoint x="214.5" y="40" as="sourcePoint" />
            <mxPoint x="214.5" y="90" as="targetPoint" />
          </mxGeometry>
        </mxCell>
        <mxCell id="4651XKwHsViZ6ubkQijK-39" value="กระบวนการ" style="rounded=0;whiteSpace=wrap;html=1;fontFamily=Sarabun;fontSource=https%3A%2F%2Ffonts.googleapis.com%2Fcss%3Ffamily%3DSarabun;" parent="4651XKwHsViZ6ubkQijK-34" vertex="1">
          <mxGeometry x="320" y="70" width="120" height="30" as="geometry" />
        </mxCell>
        <mxCell id="4651XKwHsViZ6ubkQijK-40" value="" style="endArrow=classic;html=1;rounded=0;" parent="4651XKwHsViZ6ubkQijK-34" edge="1">
          <mxGeometry width="50" height="50" relative="1" as="geometry">
            <mxPoint x="379" y="40" as="sourcePoint" />
            <mxPoint x="379.5" y="70" as="targetPoint" />
          </mxGeometry>
        </mxCell>
        <mxCell id="4651XKwHsViZ6ubkQijK-41" value="" style="endArrow=classic;html=1;rounded=0;" parent="4651XKwHsViZ6ubkQijK-34" edge="1">
          <mxGeometry width="50" height="50" relative="1" as="geometry">
            <mxPoint x="379.75" y="100" as="sourcePoint" />
            <mxPoint x="380.25" y="130" as="targetPoint" />
          </mxGeometry>
        </mxCell>
        <mxCell id="4651XKwHsViZ6ubkQijK-42" value="ประโยคเงื่อนไข" style="rhombus;whiteSpace=wrap;html=1;fontFamily=Sarabun;fontSource=https%3A%2F%2Ffonts.googleapis.com%2Fcss%3Ffamily%3DSarabun;" parent="4651XKwHsViZ6ubkQijK-34" vertex="1">
          <mxGeometry x="490" y="60" width="100" height="60" as="geometry" />
        </mxCell>
        <mxCell id="4651XKwHsViZ6ubkQijK-43" value="" style="endArrow=classic;html=1;rounded=0;" parent="4651XKwHsViZ6ubkQijK-34" edge="1">
          <mxGeometry width="50" height="50" relative="1" as="geometry">
            <mxPoint x="539.71" y="30" as="sourcePoint" />
            <mxPoint x="540.21" y="60" as="targetPoint" />
          </mxGeometry>
        </mxCell>
        <mxCell id="4651XKwHsViZ6ubkQijK-44" value="" style="endArrow=classic;html=1;rounded=0;" parent="4651XKwHsViZ6ubkQijK-34" edge="1">
          <mxGeometry width="50" height="50" relative="1" as="geometry">
            <mxPoint x="539.71" y="120" as="sourcePoint" />
            <mxPoint x="540" y="175" as="targetPoint" />
          </mxGeometry>
        </mxCell>
        <mxCell id="4651XKwHsViZ6ubkQijK-45" value="จริง" style="edgeLabel;html=1;align=center;verticalAlign=middle;resizable=0;points=[];fontFamily=Sarabun;fontSource=https%3A%2F%2Ffonts.googleapis.com%2Fcss%3Ffamily%3DSarabun;" parent="4651XKwHsViZ6ubkQijK-44" vertex="1" connectable="0">
          <mxGeometry x="-0.4142" y="-1" relative="1" as="geometry">
            <mxPoint as="offset" />
          </mxGeometry>
        </mxCell>
        <mxCell id="4651XKwHsViZ6ubkQijK-46" value="" style="endArrow=classic;html=1;rounded=0;exitX=1;exitY=0.5;exitDx=0;exitDy=0;" parent="4651XKwHsViZ6ubkQijK-34" source="4651XKwHsViZ6ubkQijK-42" edge="1">
          <mxGeometry width="50" height="50" relative="1" as="geometry">
            <mxPoint x="620" y="95" as="sourcePoint" />
            <mxPoint x="610" y="175" as="targetPoint" />
            <Array as="points">
              <mxPoint x="610" y="90" />
            </Array>
          </mxGeometry>
        </mxCell>
        <mxCell id="4651XKwHsViZ6ubkQijK-47" value="&lt;font data-font-src=&quot;https://fonts.googleapis.com/css?family=Sarabun&quot; face=&quot;Sarabun&quot;&gt;เท็จ&lt;/font&gt;" style="edgeLabel;html=1;align=center;verticalAlign=middle;resizable=0;points=[];" parent="4651XKwHsViZ6ubkQijK-46" vertex="1" connectable="0">
          <mxGeometry x="-0.0019" y="-2" relative="1" as="geometry">
            <mxPoint as="offset" />
          </mxGeometry>
        </mxCell>
        <mxCell id="4651XKwHsViZ6ubkQijK-48" value="&lt;font data-font-src=&quot;https://fonts.googleapis.com/css?family=Sarabun&quot; face=&quot;Sarabun&quot;&gt;ฟังก์ชัน/โมดูล&lt;/font&gt;" style="shape=process;whiteSpace=wrap;html=1;backgroundOutline=1;" parent="4651XKwHsViZ6ubkQijK-34" vertex="1">
          <mxGeometry x="25" y="180" width="120" height="30" as="geometry" />
        </mxCell>
        <mxCell id="4651XKwHsViZ6ubkQijK-49" value="" style="endArrow=classic;html=1;rounded=0;" parent="4651XKwHsViZ6ubkQijK-34" edge="1">
          <mxGeometry width="50" height="50" relative="1" as="geometry">
            <mxPoint x="84.70999999999998" y="150" as="sourcePoint" />
            <mxPoint x="85.20999999999998" y="180" as="targetPoint" />
          </mxGeometry>
        </mxCell>
        <mxCell id="4651XKwHsViZ6ubkQijK-50" value="" style="endArrow=classic;html=1;rounded=0;" parent="4651XKwHsViZ6ubkQijK-34" edge="1">
          <mxGeometry width="50" height="50" relative="1" as="geometry">
            <mxPoint x="84.70999999999998" y="210" as="sourcePoint" />
            <mxPoint x="85.20999999999998" y="240" as="targetPoint" />
          </mxGeometry>
        </mxCell>
        <mxCell id="4651XKwHsViZ6ubkQijK-51" value="" style="strokeWidth=2;html=1;shape=mxgraph.flowchart.start_2;whiteSpace=wrap;" parent="4651XKwHsViZ6ubkQijK-34" vertex="1">
          <mxGeometry x="205" y="185" width="20" height="20" as="geometry" />
        </mxCell>
        <mxCell id="4651XKwHsViZ6ubkQijK-52" value="" style="endArrow=classic;html=1;rounded=0;" parent="4651XKwHsViZ6ubkQijK-34" edge="1">
          <mxGeometry width="50" height="50" relative="1" as="geometry">
            <mxPoint x="214.70999999999998" y="155" as="sourcePoint" />
            <mxPoint x="215.20999999999998" y="185" as="targetPoint" />
          </mxGeometry>
        </mxCell>
        <mxCell id="4651XKwHsViZ6ubkQijK-53" value="" style="endArrow=classic;html=1;rounded=0;entryX=0;entryY=0.5;entryDx=0;entryDy=0;entryPerimeter=0;" parent="4651XKwHsViZ6ubkQijK-34" target="4651XKwHsViZ6ubkQijK-51" edge="1">
          <mxGeometry width="50" height="50" relative="1" as="geometry">
            <mxPoint x="189.99999999999997" y="155" as="sourcePoint" />
            <mxPoint x="190.49999999999997" y="185" as="targetPoint" />
            <Array as="points">
              <mxPoint x="190" y="180" />
            </Array>
          </mxGeometry>
        </mxCell>
        <mxCell id="4651XKwHsViZ6ubkQijK-54" value="" style="endArrow=classic;html=1;rounded=0;entryX=1;entryY=0.5;entryDx=0;entryDy=0;entryPerimeter=0;" parent="4651XKwHsViZ6ubkQijK-34" target="4651XKwHsViZ6ubkQijK-51" edge="1">
          <mxGeometry width="50" height="50" relative="1" as="geometry">
            <mxPoint x="239.99999999999997" y="155" as="sourcePoint" />
            <mxPoint x="240.49999999999997" y="185" as="targetPoint" />
            <Array as="points">
              <mxPoint x="240" y="180" />
            </Array>
          </mxGeometry>
        </mxCell>
        <mxCell id="4651XKwHsViZ6ubkQijK-55" value="" style="endArrow=classic;html=1;rounded=0;" parent="4651XKwHsViZ6ubkQijK-34" edge="1">
          <mxGeometry width="50" height="50" relative="1" as="geometry">
            <mxPoint x="214.70999999999998" y="205" as="sourcePoint" />
            <mxPoint x="215.20999999999998" y="235" as="targetPoint" />
          </mxGeometry>
        </mxCell>
        <mxCell id="4651XKwHsViZ6ubkQijK-56" value="&lt;font data-font-src=&quot;https://fonts.googleapis.com/css?family=Sarabun&quot; face=&quot;Sarabun&quot;&gt;ตัวเชื่อม&lt;/font&gt;" style="text;html=1;align=center;verticalAlign=middle;resizable=0;points=[];autosize=1;strokeColor=none;fillColor=none;" parent="4651XKwHsViZ6ubkQijK-34" vertex="1">
          <mxGeometry x="220" y="190" width="60" height="30" as="geometry" />
        </mxCell>
        <mxCell id="4651XKwHsViZ6ubkQijK-57" value="" style="endArrow=classic;html=1;rounded=0;" parent="4651XKwHsViZ6ubkQijK-34" edge="1">
          <mxGeometry width="50" height="50" relative="1" as="geometry">
            <mxPoint x="353.71" y="165" as="sourcePoint" />
            <mxPoint x="354.21" y="195" as="targetPoint" />
          </mxGeometry>
        </mxCell>
        <mxCell id="4651XKwHsViZ6ubkQijK-58" value="" style="verticalLabelPosition=bottom;verticalAlign=top;html=1;shape=offPageConnector;rounded=0;size=0.5;" parent="4651XKwHsViZ6ubkQijK-34" vertex="1">
          <mxGeometry x="339" y="195" width="30" height="30" as="geometry" />
        </mxCell>
        <mxCell id="4651XKwHsViZ6ubkQijK-59" value="" style="endArrow=classic;html=1;rounded=0;" parent="4651XKwHsViZ6ubkQijK-34" edge="1">
          <mxGeometry width="50" height="50" relative="1" as="geometry">
            <mxPoint x="405.71" y="195" as="sourcePoint" />
            <mxPoint x="406.21" y="225" as="targetPoint" />
          </mxGeometry>
        </mxCell>
        <mxCell id="4651XKwHsViZ6ubkQijK-60" value="" style="verticalLabelPosition=bottom;verticalAlign=top;html=1;shape=offPageConnector;rounded=0;size=0.5;" parent="4651XKwHsViZ6ubkQijK-34" vertex="1">
          <mxGeometry x="391" y="165" width="30" height="30" as="geometry" />
        </mxCell>
        <mxCell id="4651XKwHsViZ6ubkQijK-61" value="หน้าต่อไป" style="text;html=1;align=center;verticalAlign=middle;resizable=0;points=[];autosize=1;strokeColor=none;fillColor=none;fontFamily=Sarabun;fontSource=https%3A%2F%2Ffonts.googleapis.com%2Fcss%3Ffamily%3DSarabun;" parent="4651XKwHsViZ6ubkQijK-34" vertex="1">
          <mxGeometry x="345" y="220" width="70" height="30" as="geometry" />
        </mxCell>
        <mxCell id="4651XKwHsViZ6ubkQijK-62" value="ก" style="text;html=1;align=center;verticalAlign=middle;resizable=0;points=[];autosize=1;strokeColor=none;fillColor=none;fontFamily=Sarabun;fontSource=https%3A%2F%2Ffonts.googleapis.com%2Fcss%3Ffamily%3DSarabun;" parent="4651XKwHsViZ6ubkQijK-34" vertex="1">
          <mxGeometry x="339" y="190" width="30" height="30" as="geometry" />
        </mxCell>
        <mxCell id="4651XKwHsViZ6ubkQijK-63" value="ก" style="text;html=1;align=center;verticalAlign=middle;resizable=0;points=[];autosize=1;strokeColor=none;fillColor=none;fontFamily=Sarabun;fontSource=https%3A%2F%2Ffonts.googleapis.com%2Fcss%3Ffamily%3DSarabun;" parent="4651XKwHsViZ6ubkQijK-34" vertex="1">
          <mxGeometry x="391" y="160" width="30" height="30" as="geometry" />
        </mxCell>
        <mxCell id="4651XKwHsViZ6ubkQijK-64" value="แสดงผล/รับค่า" style="shape=parallelogram;perimeter=parallelogramPerimeter;whiteSpace=wrap;html=1;fixedSize=1;fontFamily=Sarabun;fontSource=https%3A%2F%2Ffonts.googleapis.com%2Fcss%3Ffamily%3DSarabun;" parent="4651XKwHsViZ6ubkQijK-34" vertex="1">
          <mxGeometry x="450" y="210" width="120" height="30" as="geometry" />
        </mxCell>
        <mxCell id="4651XKwHsViZ6ubkQijK-65" value="" style="endArrow=classic;html=1;rounded=0;" parent="4651XKwHsViZ6ubkQijK-34" edge="1">
          <mxGeometry width="50" height="50" relative="1" as="geometry">
            <mxPoint x="509.71" y="180" as="sourcePoint" />
            <mxPoint x="510.21" y="210" as="targetPoint" />
          </mxGeometry>
        </mxCell>
        <mxCell id="4651XKwHsViZ6ubkQijK-66" value="" style="endArrow=classic;html=1;rounded=0;" parent="4651XKwHsViZ6ubkQijK-34" edge="1">
          <mxGeometry width="50" height="50" relative="1" as="geometry">
            <mxPoint x="509.71" y="240" as="sourcePoint" />
            <mxPoint x="510.21" y="270" as="targetPoint" />
          </mxGeometry>
        </mxCell>
        <mxCell id="4651XKwHsViZ6ubkQijK-67" value="แก้ไขโจยท์" style="swimlane;whiteSpace=wrap;html=1;" parent="1" vertex="1">
          <mxGeometry x="90" y="370" width="708" height="1140" as="geometry" />
        </mxCell>
        <mxCell id="DF0VrAoliHlgIlry315B-1" value="no" style="text;html=1;align=center;verticalAlign=middle;whiteSpace=wrap;rounded=0;" parent="4651XKwHsViZ6ubkQijK-67" vertex="1">
          <mxGeometry x="446.01" y="282" width="60" height="30" as="geometry" />
        </mxCell>
        <mxCell id="pLaA7P1DmfjtQRvUbQx7-1" value="start" style="ellipse;whiteSpace=wrap;html=1;" parent="4651XKwHsViZ6ubkQijK-67" vertex="1">
          <mxGeometry x="294" y="45" width="120" height="50" as="geometry" />
        </mxCell>
      </root>
    </mxGraphModel>
  </diagram>
</mxfile>
